<?xml version="1.0" standalone="no"?>
<!DOCTYPE svg PUBLIC "-//W3C//DTD SVG 20010904//EN"
 "http://www.w3.org/TR/2001/REC-SVG-20010904/DTD/svg10.dtd">
<svg version="1.0" xmlns="http://www.w3.org/2000/svg"
 width="700.000000pt" height="700.000000pt" viewBox="0 0 700.000000 700.000000"
 preserveAspectRatio="xMidYMid meet">
<metadata>
Created by potrace 1.14, written by Peter Selinger 2001-2017
</metadata>
<g transform="translate(0.000000,700.000000) scale(0.100000,-0.100000)"
fill="#000000" stroke="none">
<path d="M1130 5106 c0 -17 445 -282 735 -436 234 -125 675 -338 955 -462 l65
-29 -55 5 c-63 6 -64 7 -185 35 -161 39 -691 202 -802 248 -7 2 -13 0 -13 -6
0 -6 5 -11 11 -11 32 0 301 -197 519 -380 493 -414 632 -492 930 -524 30 -4
71 -8 90 -10 121 -15 145 -18 163 -22 52 -10 -9 17 -118 51 -189 59 -178 49
-104 98 60 39 68 42 134 42 81 0 206 -39 502 -156 259 -103 383 -146 495 -174
98 -25 390 -89 458 -100 19 -3 55 -10 80 -15 64 -14 257 -48 310 -55 64 -9
101 -15 133 -21 15 -3 27 -3 27 -1 0 10 -115 72 -175 94 l-60 23 55 -5 c30 -2
84 -7 120 -10 68 -6 99 -21 133 -67 18 -24 19 -30 6 -60 -7 -18 -14 -65 -13
-104 0 -69 3 -80 58 -179 41 -74 122 -165 147 -165 10 0 4 105 -11 193 -17 93
-57 212 -106 313 -39 82 -47 93 -86 111 -100 47 -199 68 -358 78 -52 3 -117 8
-143 11 -136 15 -460 141 -607 236 -51 32 -229 172 -275 215 -30 28 -106 78
-140 91 -34 14 -56 18 -131 26 -113 12 -217 63 -337 166 -10 8 -39 22 -65 32
-105 37 -581 201 -632 218 -209 69 -788 280 -875 319 -11 5 -60 26 -110 46
-235 97 -671 303 -712 337 -7 6 -13 8 -13 4z"/>
<path d="M755 4970 c39 -28 111 -81 160 -118 50 -36 97 -74 106 -84 9 -10 20
-18 24 -18 8 0 120 -90 230 -184 77 -65 288 -277 340 -340 216 -263 283 -496
197 -677 -54 -113 -154 -202 -322 -286 -65 -33 -77 -42 -50 -37 60 9 93 14
160 20 36 3 76 7 89 9 66 11 256 19 426 19 225 0 330 -8 490 -40 265 -53 436
-159 518 -321 30 -58 37 -84 44 -165 l5 -58 42 26 c158 96 529 235 721 269 17
3 62 12 100 20 223 45 516 38 722 -16 169 -44 347 -137 456 -238 53 -49 55
-50 117 -41 72 11 268 5 303 -9 15 -6 27 -8 27 -6 0 5 -80 119 -99 142 -38 44
-79 145 -85 211 -4 39 -11 74 -16 77 -10 6 -141 33 -200 42 -19 2 -71 13 -115
23 -118 27 -197 44 -420 89 -110 22 -238 50 -285 61 -151 36 -297 67 -363 75
-15 2 -44 6 -65 9 -79 11 -199 26 -252 31 -30 3 -75 7 -100 10 -25 3 -70 7
-100 10 -30 3 -66 7 -80 10 -14 2 -54 6 -90 10 -158 17 -207 24 -277 40 -184
43 -382 162 -622 374 -89 78 -91 79 -241 207 -237 200 -439 338 -591 404 -90
39 -451 217 -535 263 -34 19 -142 79 -240 133 -98 55 -183 101 -189 103 -5 1
22 -20 60 -49z"/>
<path d="M23 2482 l-23 -3 0 -305 0 -305 177 2 c140 1 191 6 245 21 116 33
205 97 245 176 25 50 25 174 0 220 -46 86 -165 161 -289 182 -60 11 -306 19
-355 12z m326 -51 c49 -15 108 -58 131 -97 81 -130 51 -304 -65 -381 -48 -31
-95 -43 -186 -46 l-84 -2 -2 250 c-1 138 0 260 2 272 5 21 9 22 88 18 45 -2
97 -8 116 -14z"/>
<path d="M1269 2474 c0 -7 -1 -142 -1 -299 0 -157 1 -289 1 -295 1 -6 32 -10
71 -10 l70 0 0 294 0 294 152 -5 c84 -2 154 -6 156 -8 2 -1 3 -43 4 -91 1
-149 11 -134 -87 -134 -47 0 -85 -4 -85 -9 0 -21 38 -36 103 -41 l70 -5 0
-125 c0 -69 2 -130 4 -137 5 -11 66 -26 113 -27 l25 -1 1 138 0 139 -25 9
c-13 6 -44 13 -68 16 -26 3 -42 10 -40 17 2 6 8 11 13 11 41 3 104 18 112 28
5 7 9 58 9 115 0 96 -1 104 -21 112 -40 15 -141 22 -358 25 -185 3 -218 2
-219 -11z"/>
<path d="M5255 2465 c-144 -35 -239 -117 -262 -227 -44 -204 129 -367 388
-366 225 1 382 117 393 292 13 215 -248 366 -519 301z m185 -29 c182 -41 248
-305 114 -455 -79 -89 -233 -97 -329 -19 -86 72 -116 220 -66 334 38 84 94
129 181 143 43 7 54 7 100 -3z"/>
<path d="M2685 2456 c-77 -18 -145 -49 -172 -78 -21 -22 -21 -32 -22 -265 l-1
-243 74 0 c50 0 75 4 78 13 2 6 4 76 3 154 -1 161 -7 150 84 151 42 1 59 6 78
24 l25 23 -94 5 -93 5 -1 68 c0 66 0 69 30 85 45 24 228 24 273 0 l32 -18 0
-232 c0 -128 0 -243 0 -255 1 -22 5 -23 76 -23 l75 0 -2 248 -3 247 -48 32
c-27 18 -72 40 -100 49 -73 22 -219 27 -292 10z"/>
<path d="M4007 2464 c-1 -1 -46 -4 -100 -7 -54 -3 -105 -11 -113 -18 -12 -10
-14 -55 -12 -278 l3 -266 55 -11 c70 -15 495 -11 531 4 l27 11 0 145 c0 129
-2 146 -16 147 -19 1 -255 1 -288 0 -11 -1 -29 -8 -40 -16 -17 -13 -8 -14 86
-13 l105 1 3 -127 c2 -109 0 -127 -14 -133 -14 -5 -181 -8 -271 -4 l-33 1 0
265 c0 229 2 265 15 265 8 0 79 1 158 1 l142 0 5 -48 5 -47 70 0 70 1 2 62 3
61 -68 1 c-37 0 -125 1 -195 2 -71 1 -129 1 -130 1z"/>
<path d="M6429 2432 l-66 -25 0 -269 0 -268 77 0 76 0 0 256 c-1 141 2 260 5
266 10 16 169 18 229 2 107 -29 100 -10 100 -284 l0 -240 75 0 75 0 0 249 0
250 -54 26 c-30 14 -82 33 -117 41 -60 14 -205 19 -276 9 -18 -3 -35 0 -38 5
-8 13 -7 13 -86 -18z"/>
</g>
</svg>
