<?xml version="1.0" encoding="utf-8"?>
<!-- Generator: Adobe Illustrator 26.1.0, SVG Export Plug-In . SVG Version: 6.00 Build 0)  -->
<svg version="1.1" id="Layer_1" xmlns="http://www.w3.org/2000/svg" xmlns:xlink="http://www.w3.org/1999/xlink" x="0px" y="0px"
	 viewBox="0 0 4000 4000" style="enable-background:new 0 0 4000 4000;" xml:space="preserve">

<path d="M2621.2,1991.5c-169.1,138.9-385.4,222.2-621.1,222.2c-235.9,0-452.2-83.3-621.1-222.2
	c-374.4,215.3-626.4,619.4-626.4,1082.3c0,688.8,2494.9,688.8,2494.9,0C3247.5,2610.9,2995.4,2206.8,2621.2,1991.5z M1535.7,1915.6
	c132.2,90.4,292.2,143.1,464.4,143.1c172.2,0,332-52.7,464.2-143.1c217.4-148.4,360.1-398.4,360.1-681.4
	c0-455.4-369.1-824.5-824.3-824.5c-455.4,0-824.5,369.1-824.5,824.5C1175.6,1517.2,1318.3,1767,1535.7,1915.6z"/>
</svg>
